<!-- the logo on the tab -->
<svg version="1.1" id="Layer_1" xmlns="http://www.w3.org/2000/svg" x="0" y="0" viewBox="0 0 452.9 540" style="enable-background:new 0 0 452.9 540" xml:space="preserve"><style>.st2{fill:none;stroke:#79a544;stroke-width:9;stroke-miterlimit:10}</style><path d="M220.86 27.53v136.15c.34-.01.67-.01 1.01-.01 17.95 0 34.08 7.78 45.2 20.16 9.68 10.76 15.57 25 15.57 40.61 0 33.57-27.21 60.78-60.77 60.78-.34 0-.67 0-1.01-.01v228.66c.39.53.73.98 1.01 1.36 10.9-14.64 107.33-146.48 124.86-254.07C365.11 148.32 253.11 30.1 221.87 27.53h-1.01z" style="fill:#accc78"/><path d="M220.86 27.53v136.15c-.34-.01-.66-.01-1-.01-17.81 0-33.81 7.78-44.84 20.16-9.6 10.76-15.45 25-15.45 40.61 0 33.57 27 60.78 60.29 60.78.34 0 .66 0 1-.01v228.66l-1 1.36c-10.81-14.64-106.48-146.48-123.87-254.07C77.74 148.32 188.86 30.1 219.85 27.53h1.01z" style="fill:#c9df8b"/><path class="st2" d="M221.87 27.65c-.35-.05-.68-.09-1.01-.12C189.62 30.1 77.62 148.32 96 261.16c17.53 107.59 113.96 239.43 124.86 254.07.28-.38.62-.83 1.01-1.36 14.79-20.03 106.77-147.88 123.85-252.71C363.91 149.5 254.43 32.58 221.87 27.65zm0 257.56c-.34.01-.67.01-1.01.01-33.56 0-60.77-27.21-60.77-60.78 0-15.61 5.89-29.85 15.57-40.61 11.12-12.38 27.25-20.16 45.2-20.16.34 0 .67 0 1.01.01"/><path class="st2" d="M221.87 163.68c17.07.28 32.43 7.59 43.3 19.17 10.21 10.87 16.46 25.5 16.46 41.59 0 33.23-26.67 60.23-59.76 60.77"/><path d="M220.86 163.67V48.77m0 54.07 40.45-21.8m-40.45 21.8-40.54-21.06m40.54 72.53 64.1-31.38m-64.1 31.38-60.78-32.75M312 160.64l-46.83 22.21m-89.51.98-48.89-23.19m94.09 124.58v224.84m-60.58-271.47-43.5-20.62m211.68 0-47.18 22.37m-59.33 86.09-83.42-39.56m82.91 39.56 83.43-39.56M220.86 380l44.31-20.7M220.53 380l-44.87-20.96" style="stroke-linecap:round;stroke-linejoin:round;fill:none;stroke:#79a544;stroke-width:9;stroke-miterlimit:10"/></svg>